<mxfile host="localhost" modified="2020-05-17T15:45:06.797Z" agent="5.0 (Macintosh; Intel Mac OS X 10_15_4) AppleWebKit/537.36 (KHTML, like Gecko) Code/1.45.0 Chrome/78.0.3904.130 Electron/7.2.4 Safari/537.36" etag="BF_biMY-ChBJe2DWPU-q" version="13.0.9">
    <diagram id="Sttl8mKHboSlKdve3zSI" name="Page-1">
        <mxGraphModel dx="625" dy="579" grid="1" gridSize="10" guides="1" tooltips="1" connect="1" arrows="1" fold="1" page="1" pageScale="1" pageWidth="827" pageHeight="1169" math="0" shadow="0">
            <root>
                <mxCell id="0"/>
                <mxCell id="1" parent="0"/>
                <mxCell id="61" style="edgeStyle=orthogonalEdgeStyle;rounded=0;orthogonalLoop=1;jettySize=auto;html=1;exitX=0.5;exitY=1;exitDx=0;exitDy=0;entryX=0.5;entryY=0;entryDx=0;entryDy=0;" parent="1" source="21" target="23" edge="1">
                    <mxGeometry relative="1" as="geometry"/>
                </mxCell>
                <mxCell id="21" value="&lt;b&gt;Base headers checker filter&lt;/b&gt;" style="rounded=0;whiteSpace=wrap;html=1;" parent="1" vertex="1">
                    <mxGeometry x="40" y="120" width="320" height="20" as="geometry"/>
                </mxCell>
                <mxCell id="84" style="edgeStyle=orthogonalEdgeStyle;rounded=0;orthogonalLoop=1;jettySize=auto;html=1;exitX=0.5;exitY=1;exitDx=0;exitDy=0;entryX=0.5;entryY=0;entryDx=0;entryDy=0;" edge="1" parent="1" source="23" target="25">
                    <mxGeometry relative="1" as="geometry"/>
                </mxCell>
                <mxCell id="23" value="&lt;b&gt;Clock discrepancy filter&lt;/b&gt;" style="rounded=0;whiteSpace=wrap;html=1;" parent="1" vertex="1">
                    <mxGeometry x="40" y="160" width="320" height="20" as="geometry"/>
                </mxCell>
                <mxCell id="85" style="edgeStyle=orthogonalEdgeStyle;rounded=0;orthogonalLoop=1;jettySize=auto;html=1;exitX=0.5;exitY=1;exitDx=0;exitDy=0;entryX=0.5;entryY=0;entryDx=0;entryDy=0;" edge="1" parent="1" source="25" target="41">
                    <mxGeometry relative="1" as="geometry"/>
                </mxCell>
                <mxCell id="25" value="&lt;b&gt;Signature verification filter&lt;br&gt;&lt;/b&gt;" style="rounded=0;whiteSpace=wrap;html=1;" parent="1" vertex="1">
                    <mxGeometry x="40" y="200" width="320" height="20" as="geometry"/>
                </mxCell>
                <mxCell id="18" value="" style="shape=flexArrow;endArrow=classic;html=1;entryX=0.5;entryY=0;entryDx=0;entryDy=0;" parent="1" edge="1">
                    <mxGeometry width="50" height="50" relative="1" as="geometry">
                        <mxPoint x="200" y="80" as="sourcePoint"/>
                        <mxPoint x="200" y="120" as="targetPoint"/>
                    </mxGeometry>
                </mxCell>
                <mxCell id="19" value="incoming HTTP request" style="edgeLabel;html=1;align=center;verticalAlign=middle;resizable=0;points=[];" parent="18" vertex="1" connectable="0">
                    <mxGeometry x="-0.6" y="1" relative="1" as="geometry">
                        <mxPoint x="-1" y="-22" as="offset"/>
                    </mxGeometry>
                </mxCell>
                <mxCell id="39" value="" style="shape=flexArrow;endArrow=classic;html=1;" parent="1" edge="1">
                    <mxGeometry width="50" height="50" relative="1" as="geometry">
                        <mxPoint x="199.5" y="560" as="sourcePoint"/>
                        <mxPoint x="200" y="600" as="targetPoint"/>
                    </mxGeometry>
                </mxCell>
                <mxCell id="40" value="authorization and controller processing" style="edgeLabel;html=1;align=center;verticalAlign=middle;resizable=0;points=[];" parent="39" vertex="1" connectable="0">
                    <mxGeometry x="-0.6" y="1" relative="1" as="geometry">
                        <mxPoint x="-0.6" y="42.01" as="offset"/>
                    </mxGeometry>
                </mxCell>
                <mxCell id="41" value="Authentication filter" style="swimlane;startSize=20;" parent="1" vertex="1">
                    <mxGeometry x="40" y="240" width="320" height="320" as="geometry"/>
                </mxCell>
                <mxCell id="88" style="edgeStyle=orthogonalEdgeStyle;rounded=1;orthogonalLoop=1;jettySize=auto;html=1;exitX=1;exitY=0.5;exitDx=0;exitDy=0;exitPerimeter=0;entryX=0;entryY=0.5;entryDx=0;entryDy=0;" edge="1" parent="41" source="68" target="74">
                    <mxGeometry relative="1" as="geometry"/>
                </mxCell>
                <mxCell id="91" style="edgeStyle=orthogonalEdgeStyle;rounded=1;orthogonalLoop=1;jettySize=auto;html=1;exitX=0.5;exitY=1;exitDx=0;exitDy=0;exitPerimeter=0;entryX=0;entryY=0.5;entryDx=0;entryDy=0;" edge="1" parent="41" source="68" target="90">
                    <mxGeometry relative="1" as="geometry"/>
                </mxCell>
                <mxCell id="68" value="Is the provided&lt;br&gt;credential valid and&lt;br&gt;not expired?" style="strokeWidth=2;html=1;shape=mxgraph.flowchart.decision;whiteSpace=wrap;spacingTop=0;" parent="41" vertex="1">
                    <mxGeometry x="10" y="50" width="150" height="120" as="geometry"/>
                </mxCell>
                <mxCell id="74" value="Return &lt;font face=&quot;Courier New&quot;&gt;Unauthorized&lt;/font&gt; API error" style="rounded=1;whiteSpace=wrap;html=1;absoluteArcSize=1;arcSize=14;strokeWidth=2;" parent="41" vertex="1">
                    <mxGeometry x="210" y="30" width="100" height="60" as="geometry"/>
                </mxCell>
                <mxCell id="87" style="edgeStyle=orthogonalEdgeStyle;rounded=1;orthogonalLoop=1;jettySize=auto;html=1;entryX=0.5;entryY=0;entryDx=0;entryDy=0;entryPerimeter=0;" edge="1" parent="41" target="68">
                    <mxGeometry relative="1" as="geometry">
                        <mxPoint x="160" y="20" as="sourcePoint"/>
                        <Array as="points">
                            <mxPoint x="160" y="30"/>
                            <mxPoint x="85" y="30"/>
                        </Array>
                    </mxGeometry>
                </mxCell>
                <mxCell id="89" value="No" style="text;html=1;align=center;verticalAlign=middle;resizable=0;points=[];autosize=1;" vertex="1" parent="41">
                    <mxGeometry x="155" y="109" width="30" height="20" as="geometry"/>
                </mxCell>
                <mxCell id="95" style="edgeStyle=orthogonalEdgeStyle;rounded=1;orthogonalLoop=1;jettySize=auto;html=1;exitX=0.5;exitY=1;exitDx=0;exitDy=0;entryX=0.5;entryY=0;entryDx=0;entryDy=0;" edge="1" parent="41" source="90" target="93">
                    <mxGeometry relative="1" as="geometry">
                        <Array as="points">
                            <mxPoint x="260" y="220"/>
                            <mxPoint x="160" y="220"/>
                        </Array>
                    </mxGeometry>
                </mxCell>
                <mxCell id="90" value="Store the authentication scheme and the validated authentication credential in the security context" style="rounded=1;whiteSpace=wrap;html=1;absoluteArcSize=1;arcSize=14;strokeWidth=2;" vertex="1" parent="41">
                    <mxGeometry x="210" y="100" width="100" height="110" as="geometry"/>
                </mxCell>
                <mxCell id="92" value="Yes" style="text;html=1;align=center;verticalAlign=middle;resizable=0;points=[];autosize=1;" vertex="1" parent="41">
                    <mxGeometry x="49" y="165" width="40" height="20" as="geometry"/>
                </mxCell>
                <mxCell id="94" style="edgeStyle=orthogonalEdgeStyle;rounded=1;orthogonalLoop=1;jettySize=auto;html=1;exitX=0.5;exitY=1;exitDx=0;exitDy=0;entryX=0.5;entryY=1;entryDx=0;entryDy=0;" edge="1" parent="41" source="93" target="41">
                    <mxGeometry relative="1" as="geometry"/>
                </mxCell>
                <mxCell id="93" value="Forward the request to the controller" style="rounded=1;whiteSpace=wrap;html=1;absoluteArcSize=1;arcSize=14;strokeWidth=2;" vertex="1" parent="41">
                    <mxGeometry x="115" y="240" width="90" height="60" as="geometry"/>
                </mxCell>
            </root>
        </mxGraphModel>
    </diagram>
</mxfile>
